<?xml version="1.0" encoding="utf-8"?>
<!-- Generator: Adobe Illustrator 16.0.0, SVG Export Plug-In . SVG Version: 6.00 Build 0)  -->
<!DOCTYPE svg PUBLIC "-//W3C//DTD SVG 1.1//EN" "http://www.w3.org/Graphics/SVG/1.1/DTD/svg11.dtd">
<svg version="1.1" id="Layer_1" xmlns="http://www.w3.org/2000/svg" xmlns:xlink="http://www.w3.org/1999/xlink" x="0px" y="0px"
	 width="372.878px" height="420.153px" viewBox="0 0 372.878 420.153" enable-background="new 0 0 372.878 420.153"
	 xml:space="preserve">
<path fill="#006699" d="M372.818,210.343c0,30.164-0.104,60.332,0.059,90.496c0.057,10.199-3.609,17.477-12.752,22.82
	c-52.143,30.514-104.014,61.486-156.146,92.014c-10.066,5.889-21.4,5.977-31.422,0.24c-53.602-30.682-106.904-61.885-160.438-92.684
	C3.576,318.316-0.004,311.38,0,301.908c0.034-61.229,0.028-122.465,0.005-183.697c-0.002-9.263,3.393-16.229,11.783-21.067
	C65.421,66.216,118.838,34.913,172.578,4.17c9.978-5.705,21.378-5.533,31.438,0.361c52.132,30.532,104.009,61.498,156.146,92.022
	c8.955,5.24,12.748,12.345,12.707,22.39C372.736,149.41,372.818,179.876,372.818,210.343z M354.81,210.154
	c0-30.604-0.047-61.209,0.072-91.814c0.012-2.938-0.896-4.503-3.414-5.987c-51.779-30.516-103.486-61.15-155.252-91.683
	c-5.223-3.081-10.938-3.225-16.173-0.198C127.107,51.074,74.246,81.81,21.307,112.407c-2.579,1.492-3.351,3.134-3.347,6.017
	c0.086,61.06,0.088,122.124-0.001,183.183c-0.005,3.064,0.901,4.738,3.61,6.305c52.828,30.496,105.574,61.129,158.377,91.658
	c5.254,3.041,10.886,3.129,16.16,0.014c51.76-30.549,103.467-61.186,155.258-91.678c2.75-1.615,3.51-3.393,3.504-6.387
	C354.773,271.066,354.81,240.609,354.81,210.154z"/>
<path fill="#0099FF" d="M336.06,129.245c0.006-3.074-0.924-4.753-3.627-6.343c-47.02-27.683-93.975-55.467-140.885-83.322
	c-2.627-1.561-4.553-1.634-7.23-0.073c-47.912,27.925-95.871,55.769-143.887,83.517c-2.695,1.558-3.677,3.198-3.662,6.295
	c0.122,26.855,0.071,53.711,0.071,80.57c0,27.006,0.041,54.014-0.062,81.02c-0.01,2.848,0.687,4.563,3.297,6.066
	c48.295,27.857,96.535,55.813,144.738,83.836c2.367,1.377,4.033,1.41,6.441-0.023c47.037-27.938,94.119-55.799,141.271-83.547
	c2.754-1.621,3.529-3.395,3.525-6.402C335.976,236.972,335.97,183.109,336.06,129.245z M236.224,194.146
	c-11.244,7.73-22.453,15.516-33.783,23.125c-2.346,1.574-3.328,3.242-3.551,6.127c-3.088,39.93-6.334,79.844-9.545,119.764
	c-0.047,0.598-0.158,1.189-0.289,2.146c-1.223,0.117-2.492,0.238-3.965,0.375c-0.204-1.059-0.449-1.896-0.52-2.754
	c-3.232-40.066-6.489-80.133-9.594-120.211c-0.224-2.877-1.25-4.51-3.576-6.088c-27.17-18.449-54.266-37.01-81.379-55.544
	c-1.353-0.923-2.686-1.879-4.304-3.017c0.646-1.239,1.228-2.358,1.913-3.674c1.169,0.346,2.167,0.559,3.104,0.928
	c30.944,12.177,61.862,24.421,92.867,36.441c2.189,0.852,5.295,0.801,7.494-0.059c31.811-12.422,63.535-25.057,95.76-37.827
	c0.781,1.462,1.4,2.624,2.119,3.972C271.291,170.015,253.757,182.083,236.224,194.146z"/>
</svg>
