<?xml version="1.0" encoding="utf-8"?>
<!-- Generator: Adobe Illustrator 16.0.0, SVG Export Plug-In . SVG Version: 6.00 Build 0)  -->
<!DOCTYPE svg PUBLIC "-//W3C//DTD SVG 1.1//EN" "http://www.w3.org/Graphics/SVG/1.1/DTD/svg11.dtd">
<svg version="1.1" id="Layer_1" xmlns="http://www.w3.org/2000/svg" xmlns:xlink="http://www.w3.org/1999/xlink" x="0px" y="0px"
	 width="501.208px" height="168.068px" viewBox="0 0 501.208 168.068" enable-background="new 0 0 501.208 168.068"
	 xml:space="preserve">
<path fill="#006699" d="M149.135,84.138c0,12.064-0.041,24.135,0.023,36.2c0.02,4.081-1.445,6.989-5.103,9.13
	c-20.858,12.205-41.607,24.596-62.463,36.807c-4.026,2.355-8.561,2.391-12.569,0.097C47.582,154.1,26.259,141.617,4.845,129.299
	c-3.418-1.968-4.85-4.74-4.848-8.529C0.011,96.275,0.009,71.78-0.001,47.287c-0.001-3.706,1.357-6.492,4.713-8.428
	c21.455-12.372,42.822-24.894,64.32-37.19c3.99-2.282,8.551-2.213,12.576,0.145c20.854,12.213,41.605,24.602,62.461,36.812
	c3.582,2.096,5.1,4.938,5.083,8.957C149.102,59.764,149.135,71.952,149.135,84.138z M141.931,84.063
	c0-12.243-0.019-24.484,0.028-36.728c0.006-1.175-0.357-1.801-1.365-2.396C119.881,32.733,99.198,20.479,78.49,8.265
	c-2.089-1.231-4.375-1.29-6.47-0.079C50.844,20.428,29.699,32.723,8.522,44.963c-1.032,0.597-1.341,1.253-1.339,2.407
	c0.035,24.425,0.035,48.852,0,73.276c-0.002,1.226,0.36,1.896,1.443,2.521c21.133,12.197,42.232,24.451,63.355,36.666
	c2.102,1.216,4.354,1.251,6.464,0.005c20.705-12.222,41.39-24.478,62.106-36.675c1.1-0.646,1.404-1.355,1.4-2.555
	C141.917,108.429,141.931,96.246,141.931,84.063z"/>
<path fill="#0099FF" d="M134.431,51.697c0.002-1.229-0.37-1.9-1.451-2.536C114.172,38.088,95.389,26.972,76.624,15.83
	c-1.051-0.625-1.82-0.654-2.893-0.029C54.565,26.97,35.379,38.109,16.172,49.209c-1.078,0.623-1.471,1.279-1.465,2.518
	c0.049,10.743,0.029,21.486,0.029,32.229c0,10.805,0.016,21.607-0.025,32.41c-0.004,1.141,0.275,1.824,1.319,2.429
	c19.319,11.145,38.616,22.325,57.898,33.534c0.947,0.553,1.614,0.564,2.577-0.01c18.816-11.176,37.65-22.318,56.512-33.42
	c1.103-0.646,1.411-1.357,1.409-2.562C134.397,94.791,134.395,73.246,134.431,51.697z M94.494,77.659
	c-4.498,3.093-8.982,6.207-13.515,9.25c-0.938,0.63-1.331,1.297-1.42,2.451c-1.235,15.973-2.533,31.939-3.817,47.908
	c-0.02,0.238-0.064,0.475-0.116,0.855c-0.489,0.049-0.997,0.098-1.587,0.15c-0.081-0.423-0.18-0.759-0.207-1.102
	c-1.293-16.027-2.596-32.057-3.838-48.089c-0.09-1.149-0.5-1.804-1.431-2.436c-10.868-7.38-21.707-14.805-32.554-22.219
	c-0.541-0.369-1.074-0.752-1.721-1.207c0.258-0.496,0.49-0.944,0.765-1.47c0.468,0.138,0.866,0.224,1.241,0.371
	c12.379,4.871,24.746,9.769,37.149,14.577c0.876,0.34,2.118,0.32,2.998-0.021c12.725-4.969,25.415-10.023,38.306-15.132
	c0.313,0.585,0.562,1.05,0.848,1.588C108.522,68.007,101.508,72.835,94.494,77.659z"/>
<g>
	<path fill="#333333" d="M361.09,137.047c0.014-22.132,0.064-44.263-0.016-66.393c-0.008-2.259,0.582-3.292,2.857-3.719
		c8.021-1.501,16.035-2.966,24.229-1.752c12.891,1.908,21.063,10.769,21.715,23.903c0.201,4.104-0.064,8.359-0.945,12.366
		c-3.076,13.997-14.852,20.905-28.725,17.192c-1.271-0.34-2.521-0.76-4.23-1.279c0,6.704,0,13.191,0,19.68
		C371.014,137.047,366.053,137.047,361.09,137.047z M376.196,77.759c-0.074,1.11-0.152,1.72-0.154,2.325
		c-0.006,7.788-0.018,15.578,0.031,23.367c0.004,0.528,0.32,1.233,0.729,1.554c5.59,4.348,15.336,1.457,16.992-5.382
		c0.893-3.688,0.982-7.753,0.539-11.542c-0.689-5.911-4.082-9.512-9.188-10.246C382.243,77.415,379.229,77.759,376.196,77.759z"/>
	<path fill="#333333" d="M199.497,53.062c4.846-0.908,9.688-1.814,14.889-2.788c0,5.246,0,10.229,0,15.456
		c6.103,0,11.896,0,17.869,0c0,4.17,0,8.092,0,12.277c-5.826,0-11.623,0-17.785,0c0,3.135-0.043,6.021,0.012,8.906
		c0.078,4.329-0.048,8.685,0.413,12.975c0.541,5.034,2.925,6.965,8.022,6.788c3.063-0.105,6.104-0.754,9.521-1.203
		c0.639,3.477,1.332,7.242,2.064,11.225c-6.004,2.756-12.263,3.406-18.637,2.523c-9.82-1.359-14.617-6.437-15.871-16.279
		c-0.09-0.688-0.328-1.358-0.498-2.039C199.497,84.955,199.497,69.01,199.497,53.062z"/>
	<path fill="#333333" d="M357.94,118.319c-4.586,0-9.328,0-14.451,0c0-1.062,0.012-2.085-0.002-3.106
		c-0.113-9.734,0.096-19.484-0.451-29.195c-0.438-7.705-5.354-10.266-12.627-7.407c-1.527,0.603-1.688,1.382-1.625,2.983
		c0.461,12.175,0.723,24.359,1.053,36.699c-5.4,0-10.213,0-15.316,0c0-2.313,0.01-4.508-0.002-6.699
		c-0.029-7.971-0.051-15.938-0.127-23.904c-0.012-1.229-0.193-2.475-0.461-3.675c-1.063-4.81-3.273-6.565-8.191-6.459
		c-1.658,0.037-3.313,0.313-5.121,0.498c0,13.47,0,26.73,0,40.191c-4.99,0-9.805,0-14.816,0c-0.049-0.74-0.145-1.508-0.145-2.271
		c-0.01-15.229,0.025-30.459-0.051-45.689c-0.01-1.934,0.494-2.751,2.479-3.164c8-1.669,16.037-3.263,24.193-1.896
		c3.471,0.58,6.742,2.34,10.813,3.824c4.385-2.714,9.99-4.525,16.205-4.292c11.088,0.416,18.006,6.37,18.52,17.432
		C358.368,94.103,357.94,106.062,357.94,118.319z"/>
	<path fill="#333333" d="M282.897,97.185c-11.361,0-22.471,0-33.6,0c0.477,4.971,3.846,8.43,9.16,9.537
		c5.877,1.227,11.619,0.31,17.309-1.229c0.68-0.184,1.346-0.415,2.273-0.703c0.594,3.555,1.252,6.996,1.672,10.472
		c0.08,0.653-0.66,1.886-1.264,2.068c-9.468,2.918-19.063,4.157-28.66,0.785c-7.709-2.71-12.738-8.161-14.777-16.126
		c-2.176-8.506-1.889-16.87,2.289-24.776c6.47-12.246,22.305-16.807,34.373-9.963c7.408,4.203,10.371,11.113,11.166,19.128
		C283.186,89.859,282.897,93.4,282.897,97.185z M268.5,86.952c0.041-6.232-3.738-10.45-9.277-10.48
		c-5.734-0.032-9.783,4.3-9.764,10.48C255.809,86.952,262.154,86.952,268.5,86.952z"/>
	<path fill="#333333" d="M412.713,65.939c5.113,0,9.861,0,14.912,0c0,2.65-0.021,5.192,0.004,7.731
		c0.07,7.788-0.191,15.601,0.334,23.358c0.559,8.234,3.584,10.392,11.834,9.595c1.043-0.102,2.072-0.322,3.402-0.533
		c0-13.401,0-26.728,0-40.159c5.074,0,9.834,0,15.01,0c0,0.876,0,1.722,0,2.568c0,15.142-0.031,30.284,0.039,45.427
		c0.01,1.891-0.424,2.85-2.434,3.258c-8.443,1.723-16.922,3.139-25.551,1.916c-10.393-1.473-16.184-7.377-17.012-17.906
		c-0.59-7.481-0.418-15.031-0.531-22.55C412.661,74.495,412.713,70.345,412.713,65.939z"/>
	<path fill="#333333" d="M460.637,116.957c0.861-4.236,1.648-8.112,2.436-11.978c3.984,0.878,7.775,1.979,11.646,2.481
		c2.848,0.365,5.822,0.154,8.686-0.225c1.014-0.135,2.469-1.426,2.627-2.373c0.186-1.119-0.479-2.864-1.373-3.571
		c-1.631-1.284-3.678-2.066-5.604-2.938c-2.412-1.092-4.92-1.977-7.314-3.104c-7.297-3.436-10.41-8.973-9.602-16.879
		c0.666-6.479,5.137-11.3,12.428-13.153c8.158-2.072,16.119-0.839,24.283,1.642c-0.865,3.964-1.699,7.791-2.477,11.336
		c-4.451-0.602-8.607-1.254-12.789-1.674c-1.361-0.137-2.926,0.052-4.139,0.631c-1.047,0.498-2.311,1.7-2.414,2.702
		c-0.117,1.136,0.629,2.873,1.564,3.502c2.025,1.358,4.426,2.152,6.65,3.217c3.262,1.561,6.59,3.002,9.74,4.765
		c8.42,4.702,8.854,21.614-2.145,26.103c-8.563,3.492-17.273,3.117-26.064,1.324C464.809,118.36,462.905,117.634,460.637,116.957z"
		/>
</g>
</svg>
