<?xml version="1.0" encoding="utf-8"?>
<!-- Generator: Adobe Illustrator 16.0.0, SVG Export Plug-In . SVG Version: 6.00 Build 0)  -->
<!DOCTYPE svg PUBLIC "-//W3C//DTD SVG 1.1//EN" "http://www.w3.org/Graphics/SVG/1.1/DTD/svg11.dtd">
<svg version="1.1" id="Layer_1" xmlns="http://www.w3.org/2000/svg" xmlns:xlink="http://www.w3.org/1999/xlink" x="0px" y="0px"
	 width="792px" height="612px" viewBox="0 0 792 612" enable-background="new 0 0 792 612" xml:space="preserve">
<path fill-rule="evenodd" clip-rule="evenodd" fill="#006699" d="M582.207,306.068c0,30.165-0.103,60.333,0.059,90.496
	c0.054,10.202-3.612,17.477-12.753,22.823c-52.143,30.511-104.013,61.485-156.148,92.012c-10.065,5.888-21.4,5.976-31.421,0.241
	c-53.602-30.682-106.904-61.884-160.438-92.683c-8.543-4.914-12.123-11.85-12.118-21.322c0.035-61.231,0.029-122.466,0.005-183.698
	c-0.002-9.263,3.392-16.229,11.783-21.067c53.633-30.927,107.05-62.231,160.79-92.973c9.977-5.705,21.377-5.533,31.439,0.361
	c52.131,30.532,104.008,61.498,156.144,92.022c8.955,5.24,12.748,12.345,12.707,22.39
	C582.124,245.136,582.207,275.602,582.207,306.068z M564.198,305.88c0-30.605-0.047-61.21,0.073-91.815
	c0.012-2.938-0.896-4.503-3.415-5.987c-51.779-30.516-103.485-61.15-155.25-91.683c-5.223-3.081-10.938-3.225-16.174-0.198
	c-52.937,30.603-105.797,61.338-158.736,91.936c-2.579,1.492-3.351,3.134-3.347,6.017c0.086,61.06,0.088,122.123-0.001,183.183
	c-0.005,3.063,0.902,4.738,3.611,6.304c52.827,30.496,105.573,61.129,158.377,91.659c5.253,3.04,10.884,3.128,16.16,0.013
	c51.76-30.548,103.466-61.186,155.258-91.677c2.749-1.616,3.51-3.394,3.503-6.387C564.161,366.792,564.198,336.335,564.198,305.88z"
	/>
<path fill-rule="evenodd" clip-rule="evenodd" fill="#0099FF" d="M545.449,224.97c0.005-3.074-0.925-4.752-3.628-6.343
	c-47.017-27.682-93.972-55.467-140.883-83.322c-2.627-1.561-4.552-1.634-7.232-0.073c-47.912,27.925-95.871,55.769-143.886,83.516
	c-2.696,1.558-3.677,3.199-3.663,6.295c0.123,26.856,0.072,53.712,0.072,80.571c0,27.006,0.041,54.014-0.061,81.02
	c-0.01,2.847,0.686,4.56,3.297,6.066c48.294,27.859,96.535,55.814,144.738,83.836c2.368,1.376,4.034,1.41,6.442-0.024
	c47.038-27.938,94.12-55.798,141.271-83.546c2.754-1.621,3.53-3.396,3.525-6.403C545.364,332.697,545.359,278.835,545.449,224.97z
	 M445.613,289.871c-11.244,7.731-22.454,15.517-33.784,23.125c-2.344,1.574-3.328,3.242-3.55,6.128
	c-3.088,39.929-6.333,79.844-9.544,119.764c-0.048,0.596-0.159,1.187-0.29,2.144c-1.222,0.117-2.493,0.239-3.965,0.376
	c-0.204-1.058-0.449-1.897-0.519-2.754c-3.233-40.066-6.49-80.133-9.594-120.211c-0.224-2.878-1.25-4.509-3.577-6.089
	c-27.17-18.448-54.265-37.009-81.378-55.543c-1.353-0.923-2.686-1.879-4.304-3.016c0.646-1.24,1.228-2.359,1.913-3.675
	c1.169,0.346,2.167,0.559,3.104,0.928c30.944,12.177,61.862,24.421,92.867,36.442c2.189,0.851,5.295,0.801,7.494-0.059
	c31.811-12.422,63.534-25.057,95.759-37.827c0.781,1.462,1.401,2.624,2.119,3.971C480.68,265.74,463.146,277.809,445.613,289.871z"
	/>
</svg>
